
<svg xmlns="http://www.w3.org/2000/svg" viewBox="0 0 512 512">
  <path fill="#f9c9e8" d="M256 512c141.4 0 256-114.6 256-256S397.4 0 256 0 0 114.6 0 256s114.6 256 256 256z"/>
  <path fill="#f06292" d="M350 220c-5.5 0-10.9.7-16 2-5.1-21.7-24.5-38-48-38-5.5 0-10.9.9-16 2.6-5.1-21.7-24.5-38-48-38-27.6 0-50 22.4-50 50 0 5.5.9 10.9 2.6 16-21.7 5.1-38 24.5-38 48 0 27.6 22.4 50 50 50h164c27.6 0 50-22.4 50-50s-22.4-50-50-50z"/>
  <path fill="#f8bbd0" d="M256 198c-27.6 0-50 22.4-50 50v200c0 5.5 4.5 10 10 10h80c5.5 0 10-4.5 10-10V248c0-27.6-22.4-50-50-50z"/>
  <path fill="#ffcdd2" d="M256 258c-16.6 0-30 13.4-30 30v160c0 5.5 4.5 10 10 10h40c5.5 0 10-4.5 10-10V288c0-16.6-13.4-30-30-30z"/>
  <path fill="#e91e63" d="M286 288c0-16.6-13.4-30-30-30s-30 13.4-30 30c0 8.3 3.4 15.8 8.8 21.2 5.4 5.4 12.9 8.8 21.2 8.8s15.8-3.4 21.2-8.8c5.4-5.4 8.8-12.9 8.8-21.2z"/>
  <circle fill="#f44336" cx="256" cy="278" r="10"/>
  <circle fill="#f44336" cx="236" cy="298" r="6"/>
  <circle fill="#f44336" cx="276" cy="298" r="6"/>
</svg>
